<svg width="164" height="54" viewBox="0 0 164 54" fill="none" xmlns="http://www.w3.org/2000/svg">
<g clip-path="url(#clip0_4394_166298)">
<mask id="mask0_4394_166298" style="mask-type:luminance" maskUnits="userSpaceOnUse" x="0" y="0" width="164" height="54">
<path d="M164 0H0V54H164V0Z" fill="white"/>
</mask>
<g mask="url(#mask0_4394_166298)">
<path fill-rule="evenodd" clip-rule="evenodd" d="M66.0567 38.3339C64.831 38.3727 64.4029 37.2094 64.4029 34.5723V19.2545C64.4029 16.6176 64.831 15.4541 66.0567 15.493V14.5623H56.5618V15.5123C57.7876 15.4736 58.2156 16.637 58.2156 19.274V34.5917C58.2156 37.2287 57.7876 38.3921 56.5618 38.3534V39.2841H66.0567V38.3339Z" fill="#A90433"/>
<path fill-rule="evenodd" clip-rule="evenodd" d="M78.3526 17.3148C81.31 17.5476 83.0027 19.3508 84.0145 22.6858L84.6176 22.5307L83.2361 13.9605C82.7887 14.7554 81.2127 14.5615 80.5512 14.5615H69.7333C69.0913 14.5615 67.7099 14.7942 67.3596 13.9605L65.881 22.5307L66.523 22.6858C67.2429 19.2731 69.3637 17.3925 72.1849 17.3148V34.397C72.1849 37.0922 71.7568 38.2944 69.8111 38.3331V39.2638H80.7458V38.3331C78.7807 38.2944 78.372 37.0922 78.372 34.397V17.3148H78.3526Z" fill="#A90433"/>
<path fill-rule="evenodd" clip-rule="evenodd" d="M89.6548 29.8226C91.3476 29.7062 92.8262 30.2685 94.2076 31.4707C95.375 32.4402 96.7371 34.3209 96.7371 36.163C96.7371 37.4427 96.0366 38.2571 95.0832 38.3346V39.2653H105.473V38.3346C103.878 38.102 103.43 35.6782 102.963 34.0883C100.881 26.4294 98.2546 16.9285 98.2546 16.4438C98.2546 15.8039 98.4882 15.5713 98.9551 15.5131V14.5824H90.1606V15.5131C90.5887 15.5906 90.8223 15.8815 90.8223 16.4438C90.8223 16.9673 90.4526 18.0143 90.3163 18.4797L85.5885 34.0689C85.0048 35.7946 84.3821 37.908 82.7477 38.354V39.2847H89.3825V38.354C88.5652 38.2377 88.001 37.8693 88.001 36.706C88.001 35.8722 88.3707 34.4567 88.5652 33.6617L89.6548 29.8226ZM94.7913 28.4653C93.5851 27.4182 92.1064 26.5845 90.6082 26.6233L92.515 19.5655L94.7913 28.4653Z" fill="#A90433"/>
<path fill-rule="evenodd" clip-rule="evenodd" d="M122.305 13.8636C121.877 14.5035 121.04 14.7748 120.437 14.7748C119.99 14.7748 119.348 14.5809 118.861 14.4646C117.752 14.1932 116.896 13.9799 115.748 13.9799C113.763 13.9799 111.74 14.5809 110.086 16.0157C108.491 17.4118 107.323 19.8161 107.323 22.2398C107.323 23.9655 108.024 25.6912 109.094 26.777C110.028 27.7077 111.448 28.3476 112.596 28.8129L115.631 30.0538C116.896 30.5386 118.491 31.1009 118.491 33.1756C118.491 35.9482 116.196 36.8983 114.328 36.8983C110.748 36.8983 107.868 33.6409 107.304 29.2783L106.642 29.3946L107.304 39.865C107.751 39.3027 108.238 38.9536 108.938 38.9536C109.502 38.9536 110.359 39.1863 110.923 39.322C112.421 39.6517 113.608 39.8843 115.145 39.8843C117.402 39.8843 120.029 39.2445 121.935 37.6739C123.92 36.0646 125.126 33.8153 125.126 30.81C125.126 26.7575 122.869 25.1676 120.126 24.1206L116.604 22.8022C115.495 22.3561 113.705 21.8326 113.705 19.9519C113.705 17.9935 115.417 16.9853 116.779 16.9853C119.192 16.9853 121.604 19.3895 122.441 22.1235L123.064 22.0072L122.305 13.8636Z" fill="#A90433"/>
<path d="M66.4264 10.1609L66.193 10.1996C64.9866 10.4323 63.8582 10.6456 62.6324 10.6456C58.8189 10.6456 56.3673 8.59031 56.3673 5.39103C56.3673 2.19174 58.9162 0.0201111 62.7102 0.0201111C63.5079 0.0201111 64.2862 0.0976694 65.1033 0.291566L65.2007 0.310954V2.28869H64.9866L64.9477 2.24992C64.2473 1.47433 62.9048 1.39677 62.3599 1.39677C60.0057 1.39677 58.3519 2.96733 58.3519 5.21651C58.3519 7.50449 60.2003 9.32712 62.5351 9.32712C63.2161 9.32712 63.897 9.23017 64.5002 9.07504V6.98098C64.5002 6.22478 64.4613 5.6237 63.897 5.41041L63.8192 5.37164V5.10018H66.3875L66.3681 5.33286C66.3097 5.48797 66.3097 5.72064 66.3097 5.93393V9.46284C66.3097 9.63735 66.3097 9.85063 66.3681 10.0057L66.4264 10.1609Z" fill="#A90433"/>
<path d="M76.4073 10.4103H74.5589C73.7028 10.4103 73.1775 10.1776 72.7106 9.61533L70.8622 7.34675L69.3641 5.03938L69.5585 5.02C70.4925 4.88427 72.049 4.43831 72.049 3.00347C72.049 1.97583 71.1346 1.43291 70.2591 1.49108C69.9672 1.51048 69.6948 1.52987 69.3445 1.58804V8.39378C69.3445 9.07241 69.3251 9.92556 69.9282 10.1195L70.0255 10.1582V10.4297H66.8736V10.1582L66.9709 10.1195C67.5546 9.90617 67.5546 9.05303 67.5546 8.41317C67.5546 8.33561 67.5351 8.27744 67.5351 8.18049V2.49934C67.5351 2.42179 67.5546 2.34423 67.5546 2.26667C67.5546 1.60743 67.574 0.77367 66.9709 0.540997L66.8736 0.521607V0.250153H70.6092C72.5938 0.250153 73.8585 1.25841 73.8585 2.80957C73.8585 4.16685 72.73 5.17511 71.5626 5.52413L73.6055 8.08355C74.1892 8.80095 75.0843 9.55716 76.0182 10.1582L76.4073 10.4103Z" fill="#A90433"/>
<path d="M92.7278 3.02286C92.7278 4.86487 90.9573 5.97007 89.2839 5.97007C88.8169 5.97007 88.4473 5.91191 88.1165 5.7374L88.1749 5.48534C89.459 5.40778 90.7433 4.63219 90.7433 3.3137C90.7433 1.82071 89.4785 1.58804 88.7392 1.58804C88.4278 1.58804 88.1165 1.60742 87.8247 1.6462V8.35499C87.8247 9.14997 87.8247 9.67349 88.5446 10.0807L88.6029 10.1194V10.3909H85.3343V10.1194L85.4316 10.0807C86.0347 9.86739 86.0153 8.99485 86.0153 8.35499V2.30544C86.0153 1.6656 86.0347 0.77367 85.4316 0.540995L85.3343 0.521607V0.250153H89.1283C91.327 0.250153 92.7278 1.33597 92.7278 3.02286Z" fill="#A90433"/>
<path d="M83.7012 8.35499C83.7012 8.99485 83.6818 9.86739 84.2849 10.0807L84.3822 10.1195V10.3909H81.8918V9.61533C81.133 10.3521 79.985 10.6236 79.0705 10.6236C77.9031 10.6236 76.8914 10.2164 76.2493 9.51837C75.4516 8.64584 75.4516 7.63759 75.4516 6.59054V2.26667C75.471 1.58804 75.471 0.773672 74.8679 0.540997L74.7706 0.521607V0.250153H77.9031V0.521607L77.8254 0.540997C77.2417 0.773672 77.2417 1.6462 77.2611 2.26667V6.47422C77.2611 8.35499 78.0004 9.26631 79.518 9.26631C80.3936 9.26631 81.1718 8.89791 81.6194 8.27744C81.9112 7.88965 81.9112 7.56003 81.9112 7.0559L81.9307 2.26667C81.9307 1.6462 81.9501 0.773672 81.347 0.540997L81.2497 0.521607V0.250153H84.3433L84.4406 0.521607L84.3043 0.560385C83.7012 0.79306 83.7206 1.68498 83.7206 2.32484V8.35499H83.7012Z" fill="#A90433"/>
<path fill-rule="evenodd" clip-rule="evenodd" d="M100.551 3.0232C100.551 4.86521 98.7996 5.97042 97.1069 5.97042C96.64 5.97042 96.2704 5.91224 95.9396 5.73774L95.998 5.48567C97.2821 5.40811 98.5856 4.63254 98.5856 3.31405C98.5856 1.82104 97.3209 1.58837 96.5621 1.58837C96.2508 1.58837 95.9396 1.60776 95.6477 1.64654V8.35533C95.6477 9.1503 95.6477 9.67382 96.3677 10.081L96.426 10.1198V10.3912H93.1572V10.1198L93.2351 10.081C93.8576 9.86772 93.8382 8.99518 93.8188 8.35533V2.30579C93.8382 1.66593 93.8382 0.774006 93.2351 0.541332L93.1572 0.521942V0.250488H96.9514C99.111 0.250488 100.551 1.3557 100.551 3.0232Z" fill="#A90433"/>
<path fill-rule="evenodd" clip-rule="evenodd" d="M106.467 0H106.331C103.218 0 100.689 2.38492 100.689 5.29336C100.689 8.33752 103.121 10.6449 106.331 10.6449C109.522 10.6449 112.012 8.25996 112.012 5.21579C111.993 2.28797 109.58 0 106.467 0ZM106.389 9.28761C104.094 9.28761 102.654 7.15476 102.654 5.15763C102.654 2.86965 104.132 1.35728 106.35 1.35728C108.724 1.35728 109.989 3.50951 109.989 5.52604C110.008 7.73644 108.53 9.28761 106.389 9.28761Z" fill="#A90433"/>
<path fill-rule="evenodd" clip-rule="evenodd" d="M67.0664 53.1857C66.3077 52.798 66.0353 52.0999 65.7435 51.3437L62.4942 43.3358H59.8871V43.6073L59.9842 43.6266C60.1594 43.6848 60.2761 43.7624 60.3151 43.8786C60.4318 44.1114 60.2956 44.4604 60.1594 44.79L57.5911 51.111L57.5133 51.3243C57.2214 52.0804 56.949 52.798 56.1902 53.1662L56.1125 53.2051V53.4572H59.1477V53.1857L59.0504 53.1469C58.6807 53.0111 58.6223 52.8367 58.6028 52.7009C58.5834 52.4683 58.7001 52.1581 58.8364 51.7702L59.5951 49.7537H63.1947L64.0507 51.9642C64.4009 52.8367 64.4009 52.8949 63.8367 53.1662L63.7588 53.1857V53.4572H67.1248V53.2051L67.0664 53.1857ZM62.6693 48.3964H60.0815L61.3852 45.1196L62.6693 48.3964Z" fill="#A90433"/>
<path d="M95.6288 51.248H95.9208L95.0453 53.2258L94.9868 53.2451C94.3253 53.5555 93.547 53.7106 92.6521 53.7106C89.0136 53.7106 86.7567 51.6552 86.7567 48.3783C86.7567 45.2566 88.9747 43.085 92.1851 43.085C92.9828 43.085 93.8779 43.2014 94.948 43.4727L95.0453 43.4922V45.5668L94.8507 45.4312C93.975 44.8882 93.0412 44.5974 92.1268 44.5974C90.1421 44.5974 88.7413 46.0709 88.7413 48.165C88.7413 50.1235 90.0254 52.1982 92.4381 52.1982C93.6833 52.1982 94.8311 51.6939 95.59 51.2675L95.6288 51.248Z" fill="#A90433"/>
<path d="M105.378 53.1657L105.456 53.2045V53.4759H102.985V52.7197C102.227 53.4565 101.059 53.728 100.164 53.728C98.9967 53.728 97.9849 53.3208 97.3235 52.6227C96.5257 51.7502 96.5257 50.7419 96.5257 49.6949V45.3323C96.5451 44.673 96.5451 43.8587 95.942 43.6259L95.8641 43.6066V43.3351H98.9773V43.6066L98.8994 43.6259C98.3157 43.8587 98.3157 44.7312 98.3157 45.3516V49.5592C98.3157 51.44 99.055 52.3513 100.573 52.3513C101.448 52.3513 102.227 51.9828 102.674 51.3624C102.966 50.9747 102.966 50.645 102.966 50.1409V45.3516C102.985 44.7312 102.985 43.8392 102.382 43.6259L102.285 43.6066V43.3351H105.378L105.476 43.6066L105.359 43.6454C104.736 43.8781 104.756 44.7117 104.775 45.3904V51.4594C104.775 52.0799 104.775 52.9524 105.378 53.1657Z" fill="#A90433"/>
<path d="M82.3204 50.4725C82.3204 52.2562 80.433 53.7106 78.1371 53.7106C77.1449 53.7106 76.2109 53.5555 75.3938 53.2451L75.3355 53.2258L74.7907 50.8796L75.1019 51.1511C75.9775 51.9072 77.2033 52.3533 78.3123 52.3533C79.1684 52.3533 80.3357 51.8491 80.3357 50.9184C80.3357 49.9295 79.3045 49.4836 78.1177 48.9406C76.7169 48.3202 75.1408 47.6222 75.1408 45.8189C75.1408 43.8024 77.2421 43.085 79.0711 43.085C79.8688 43.085 80.647 43.2014 81.3474 43.434L81.4447 43.4534V45.5668L81.2113 45.3342C80.6666 44.7913 79.7715 44.4228 78.9349 44.4228C78.0983 44.4228 77.1254 44.7331 77.1254 45.6638C77.1254 46.5364 78.1955 47.0211 79.3435 47.5446C80.7443 48.1845 82.3204 48.8824 82.3204 50.4725Z" fill="#A90433"/>
<path d="M83.1201 43.3187H86.2525V43.5902L86.1553 43.6095C85.5716 43.8422 85.5716 44.7341 85.5716 45.3739V51.4235C85.5716 52.0633 85.5521 52.9358 86.1553 53.1491L86.2525 53.188V53.4593H83.1201V53.188L83.2174 53.1491C83.8011 52.9358 83.8011 52.0633 83.8011 51.4235L83.7816 51.2295V45.5679C83.7816 45.4903 83.7816 45.4128 83.8011 45.3352C83.8011 44.6565 83.8205 43.8422 83.2174 43.6095L83.1201 43.5902V43.3187Z" fill="#A90433"/>
<path d="M74.4807 50.4725C74.4807 52.2562 72.6129 53.7106 70.2975 53.7106C69.3052 53.7106 68.3907 53.5555 67.5542 53.2451L67.4957 53.2258L66.951 50.8796L67.2623 51.1511C68.1379 51.9072 69.3441 52.3533 70.4726 52.3533C71.3093 52.3533 72.4961 51.8491 72.4961 50.9184C72.4961 49.9295 71.4649 49.4836 70.2781 48.9406C68.8771 48.3202 67.3206 47.6222 67.3206 45.8189C67.3206 43.8024 69.422 43.085 71.2315 43.085C72.0292 43.085 72.8074 43.2014 73.5078 43.434L73.6051 43.4534V45.5668L73.3717 45.3342C72.8269 44.7913 71.9513 44.4228 71.1148 44.4228C70.8035 44.4228 69.3053 44.481 69.3053 45.6638C69.3053 46.5364 70.3754 47.0211 71.5233 47.5446C72.9242 48.1845 74.4807 48.8824 74.4807 50.4725Z" fill="#A90433"/>
<path d="M136.799 51.4407C136.799 52.0804 136.78 52.9531 137.383 53.1664L137.481 53.2051V53.4766H134.348V53.2051L134.445 53.1664C135.029 52.9531 135.029 52.0804 135.029 51.4407L135.01 51.2468V45.585C135.01 45.5074 135.029 45.4299 135.029 45.3523C135.029 44.6931 135.049 43.8593 134.445 43.6266L134.348 43.6073V43.3358H137.481V43.6073L137.383 43.6266C136.799 43.8593 136.799 44.7513 136.799 45.3911V51.4407Z" fill="#A90433"/>
<path d="M133.706 51.3049L133.668 51.3243C132.656 51.9448 131.741 52.1968 130.769 52.1386L127.831 51.9642L133.259 43.3358H126.274L125.399 45.3329H125.69L125.729 45.3136C126.566 44.7706 127.052 44.6349 127.908 44.6931L130.263 44.8288L124.97 53.2244L124.932 53.2051C124.192 52.8173 123.9 52.1193 123.608 51.363L120.359 43.3551H117.713V43.6266L117.81 43.646C117.986 43.7042 118.102 43.7817 118.161 43.8981C118.258 44.1308 118.122 44.4798 117.986 44.8093L115.437 51.1497L115.359 51.363C115.184 51.8673 114.989 52.3326 114.678 52.7009C114.036 52.2356 113.472 51.6927 113.063 51.1886L111.02 48.6292C112.187 48.2802 113.316 47.2719 113.316 45.9146C113.316 44.3634 112.032 43.3551 110.067 43.3551H106.35V43.6266L106.428 43.646C107.031 43.8786 107.012 44.6931 107.012 45.3717V51.4794C107.031 52.0999 107.031 52.9724 106.448 53.1857L106.35 53.2244V53.4959H109.502V53.2244L109.405 53.1857C108.802 52.9724 108.802 52.1386 108.821 51.46V44.6542C109.172 44.5962 109.444 44.5573 109.716 44.5573C110.592 44.5186 111.526 45.0615 111.526 46.0891C111.526 47.5239 109.969 47.97 109.035 48.1056L108.821 48.1251L110.32 50.4131L112.149 52.6622C112.616 53.2244 113.102 53.4572 113.958 53.4572H116.993V53.1857L116.915 53.1469C116.332 52.9336 116.351 52.6816 116.682 51.7702L117.441 49.7537H121.04L121.896 51.9642C122.247 52.8755 122.247 52.9142 121.682 53.1664L121.605 53.1857V53.4572H133.025L133.979 51.2856H133.706V51.3049ZM117.947 48.3964L119.25 45.1196L120.534 48.3964H117.947Z" fill="#A90433"/>
<path d="M143.823 43.0821C140.631 43.0047 138.025 45.4089 138.025 48.3755C138.025 51.4197 140.456 53.7077 143.667 53.7077C146.858 53.7077 149.348 51.3228 149.348 48.2786C149.368 45.3701 146.936 43.0821 143.823 43.0821ZM143.745 52.3697C141.449 52.3697 140.01 50.237 140.01 48.2398C140.01 45.9518 141.488 44.4201 143.706 44.4201C146.08 44.4201 147.344 46.5723 147.344 48.6082C147.364 50.8186 145.885 52.3697 143.745 52.3697Z" fill="#A90433"/>
<path d="M163.321 51.4407C163.302 52.0804 163.302 52.9531 163.904 53.1664L164.003 53.2051V53.4766H160.869V53.2051L160.967 53.1664C161.551 52.9531 161.551 52.0804 161.532 51.4407V45.3523C161.551 44.6931 161.551 43.8593 160.947 43.6266L160.869 43.6073V43.3358H164.003V43.6073L163.904 43.6266C163.321 43.8593 163.321 44.7513 163.321 45.3911V51.4407Z" fill="#A90433"/>
<path d="M157.327 43.3157H160.246V43.5872L160.187 43.6259C159.467 44.0331 159.467 44.5761 159.467 45.3904V53.9993L159.292 53.9412C158.164 53.5534 157.678 53.0299 157.035 52.1767L152.094 45.9527V51.4206C152.094 52.2156 152.094 52.739 152.814 53.1656L152.871 53.2043V53.4565H149.934V53.2043L149.992 53.1656C150.731 52.739 150.731 52.1961 150.731 51.3818V45.3904C150.731 44.5566 150.731 44.0331 150.011 43.6259L149.953 43.5872V43.3157H152.424V43.4514C152.463 43.5872 152.521 43.6454 152.599 43.7616L152.833 44.0718L158.106 50.7225V45.3709C158.125 44.5761 158.125 44.0331 157.385 43.6454L157.327 43.6065V43.3157Z" fill="#A90433"/>
<path d="M9.45464 4.38316C9.45464 5.33325 8.61801 6.12822 7.60627 6.12822H3.94841C2.91722 6.12822 2.10004 5.33325 2.10004 4.38316C2.10004 3.43307 2.85885 2.65748 3.87059 2.6187L3.89004 1.80434C3.89004 0.83486 4.72669 0.0398865 5.75788 0.0398865C6.78908 0.0398865 7.60627 0.83486 7.60627 1.80434L7.66464 2.6381C8.65692 2.65748 9.45464 3.43307 9.45464 4.38316Z" fill="#A90433"/>
<path d="M44.8088 4.38277C44.8088 5.33286 43.9722 6.12783 42.9409 6.12783H39.3026C38.2715 6.12783 37.4542 5.33286 37.4542 4.38277C37.4542 3.43268 38.2519 2.65709 39.2247 2.61832L39.2443 1.78456C39.2443 0.815084 40.0809 0.0201111 41.0927 0.0201111C42.1238 0.0201111 42.9409 0.815084 42.9409 1.78456L43.0188 2.61832C44.0306 2.65709 44.8088 3.43268 44.8088 4.38277Z" fill="#A90433"/>
<path d="M18.0362 9.48007C18.0362 9.90664 17.8611 10.3138 17.5692 10.5659L17.2578 10.8761C16.2851 11.516 15.3317 11.8262 14.4172 11.8262C12.744 11.8262 11.81 10.7792 11.7711 10.721C11.4404 10.4108 11.0901 10.0424 11.0901 9.46068C11.0901 8.62692 11.8295 7.9289 12.7245 7.9289C13.2498 7.9289 13.7168 8.16157 14.0475 8.54936L14.067 8.58815C14.067 8.58815 14.1253 8.76265 14.495 8.76265C14.6313 8.76265 14.8063 8.74326 15.0203 8.6657L15.0399 8.60753C15.3512 8.16157 15.8376 7.90952 16.4018 7.90952C17.3162 7.94829 18.0362 8.62693 18.0362 9.48007Z" fill="#A90433"/>
<path d="M45.6647 11.3041C45.6647 9.07431 43.7385 7.27109 41.3843 7.27109C39.6137 7.27109 38.0182 8.29873 37.3761 9.8499L34.2632 17.4894C34.2632 17.4894 34.0685 18.1293 33.5821 18.2844H28.1148L28.0954 16.8107C28.0954 14.6197 26.2665 13.088 23.6398 13.088H23.562C20.9159 13.088 19.0675 14.6197 19.0675 16.8107L19.087 18.2844H13.6391C13.1527 18.1293 12.9581 17.4894 12.9581 17.4699L9.84506 9.8499H9.82561C9.18354 8.29873 7.60755 7.27109 5.83699 7.27109C3.46328 7.27109 1.53708 9.07431 1.53708 11.2847L0 37.7128C0 38.5659 0.719896 39.2445 1.63436 39.2445C2.52936 39.2445 3.26871 38.5659 3.26871 37.7128L3.50219 28.2119L3.48275 28.0761C3.48275 27.7271 3.79404 27.4362 4.18318 27.4362C4.55286 27.4362 4.86416 27.7271 4.86416 28.0955L4.90307 28.3088L4.76688 36.0453C4.76688 36.879 5.50623 37.577 6.40123 37.577C7.3157 37.577 8.05505 36.8983 8.05505 36.0453L8.24961 28.0955C8.24961 27.7466 8.56092 27.4556 8.93059 27.4556C9.31972 27.4556 9.61158 27.7466 9.61158 28.0955L9.47539 34.5134C9.47539 35.3472 10.2147 36.0453 11.1292 36.0453C12.0437 36.0453 12.7636 35.3666 12.7636 34.5134L12.8219 28.0761C12.8219 27.7271 13.1332 27.4362 13.5029 27.4362C13.892 27.4362 14.184 27.7271 14.184 28.0761V32.8653C14.184 33.7185 14.9038 34.3778 15.8378 34.3778C16.7326 34.3778 17.4526 33.7185 17.4526 32.8653L17.5304 28.0761C17.5304 27.7077 17.8223 27.4362 18.2114 27.4362C18.5617 27.4362 18.873 28.0761 18.873 28.4832L19.1064 32.0121C19.1064 34.2226 20.9938 35.8125 23.601 35.8125H23.6787C26.2665 35.8125 28.1343 34.2032 28.1343 32.0121L28.3678 28.4639C28.3678 28.0761 28.718 27.4362 29.0682 27.4362C29.4379 27.4362 29.7492 27.7271 29.7492 28.0761L29.7881 32.8653C29.7881 33.6991 30.5275 34.3778 31.4419 34.3778C32.337 34.3778 33.0763 33.6991 33.0763 32.8653V28.0761C33.0763 27.7271 33.3875 27.4362 33.7572 27.4362C34.1464 27.4362 34.4382 27.7271 34.4382 28.0761L34.4966 34.5134C34.4966 35.3472 35.2359 36.0453 36.1504 36.0453C37.0454 36.0453 37.7848 35.3666 37.7848 34.5134L37.6875 28.0761C37.6875 27.7077 37.9988 27.4362 38.3685 27.4362C38.7576 27.4362 39.0495 27.7271 39.0495 28.0761L39.2635 36.0258C39.2635 36.8596 39.9833 37.5577 40.8979 37.5577C41.8123 37.5577 42.5322 36.879 42.5322 36.0258L42.396 28.3281L42.4544 28.0761C42.4544 27.7077 42.7462 27.4362 43.1354 27.4362C43.5245 27.4362 43.8163 27.7271 43.8163 28.0568L43.7969 28.2312L44.0303 37.7128C44.0303 38.5659 44.7697 39.2445 45.6843 39.2445C46.5791 39.2445 47.3185 38.5659 47.3185 37.6934L45.6647 11.3041ZM17.3943 24.0431H9.61158C8.93059 24.0431 8.17179 23.2675 8.0745 23.1706L5.75916 17.1597L5.40894 17.3343C5.27275 17.373 5.13655 17.3925 5.01981 17.3925C4.47503 17.3925 4.02753 17.0628 3.83295 16.5587C3.73567 16.2485 3.75514 15.9382 3.89132 15.6668C4.04699 15.3565 4.31938 15.1432 4.6696 15.0463L4.74742 15.0269L4.51394 14.2707C4.41666 13.9605 4.43612 13.6503 4.57231 13.3788C4.72797 13.0686 5.00036 12.8553 5.33112 12.7583C5.46731 12.7196 5.60351 12.7002 5.72025 12.7002C6.28449 12.7002 6.79037 13.0492 6.96548 13.5533L7.29624 14.2902L7.35461 14.2707C7.49081 14.232 7.627 14.2125 7.74374 14.2125C8.28853 14.2125 8.81385 14.5615 8.98896 15.0463C9.08626 15.3372 9.0668 15.6474 8.93059 15.9382C8.77494 16.2485 8.50255 16.4618 8.15233 16.5587L7.87994 16.6556L9.86452 21.6775C9.88397 21.7164 9.98126 22.0653 10.8568 22.0653H10.8957L11.1681 22.0848H17.3943C17.939 22.0848 18.4254 22.5501 18.4254 23.093C18.4254 23.6359 17.9584 24.0431 17.3943 24.0431ZM29.8465 22.0653H36.092L36.3256 22.0459H36.4034C37.279 22.0459 37.3761 21.6969 37.3957 21.6582L39.3802 16.6169L39.1078 16.52C38.7576 16.423 38.4852 16.1903 38.3295 15.8995C38.1934 15.6086 38.1739 15.2983 38.2712 15.0075C38.4464 14.5035 38.9522 14.1738 39.5165 14.1738C39.6526 14.1738 39.7889 14.1932 39.9056 14.232L39.9833 14.2513L40.2947 13.5146C40.4699 13.0104 40.9757 12.6614 41.54 12.6614C41.6761 12.6614 41.8123 12.6808 41.9291 12.7196C42.2598 12.8165 42.5322 13.0492 42.6878 13.34C42.8241 13.6115 42.863 13.9217 42.7462 14.232L42.5128 14.9881L42.5905 15.0075C42.9408 15.1045 43.2132 15.3372 43.3688 15.628C43.5051 15.8995 43.5245 16.2097 43.4272 16.52C43.2521 17.024 42.7851 17.3537 42.2404 17.3537C42.1041 17.3537 41.968 17.3343 41.8513 17.2955L41.4816 17.121L39.1662 23.1317C39.0689 23.2288 38.2907 24.0044 37.6291 24.0044H29.8465C29.2822 24.0044 28.8153 23.5778 28.8153 23.0348C28.8348 22.5307 29.3017 22.0653 29.8465 22.0653Z" fill="#A90433"/>
<path d="M20.0787 36.6463C20.3122 37.2086 20.2733 37.829 20.0203 38.3719L16.3626 46.0696L16.2847 46.0501L11.8486 44.1694L11.8875 44.0918L15.4869 36.491C15.8956 35.638 16.7906 35.095 17.7634 35.095C18.0941 35.095 18.4444 35.1532 18.7362 35.289C19.3782 35.5603 19.8452 36.0451 20.0787 36.6463Z" fill="#A90433"/>
<path d="M26.0701 46.322V48.164H21.1477V46.322C21.1477 45.0422 22.2567 43.9953 23.6186 43.9953C24.9611 43.9759 26.0701 45.0229 26.0701 46.322Z" fill="#A90433"/>
<path d="M35.4094 44.1701L30.9149 46.0702L30.876 45.9927L27.2377 38.3727C26.9653 37.8297 26.9653 37.2092 27.1793 36.647C27.4127 36.0458 27.8991 35.5805 28.5022 35.3091C28.8136 35.1733 29.1443 35.1151 29.4946 35.1151C30.4674 35.1151 31.3624 35.6581 31.771 36.5111L35.4094 44.1701Z" fill="#A90433"/>
<path d="M39.3219 49.8512C39.1468 50.2971 38.7965 50.6461 38.3295 50.8401L38.0377 50.9563L38.2712 51.4411C38.4658 51.8677 38.5046 52.333 38.3295 52.7596C38.1545 53.2055 37.7848 53.574 37.3373 53.7485C37.0844 53.8454 36.8314 53.8842 36.5784 53.8842C35.839 53.8842 35.1776 53.4963 34.8857 52.8759L34.6522 52.3718L34.4772 52.4494C34.2242 52.5463 33.9712 52.6045 33.7183 52.6045C32.979 52.6045 32.3174 52.1972 32.0061 51.5768C31.831 51.1696 31.7921 50.7043 31.9673 50.2971C32.1424 49.8512 32.4925 49.4633 32.9595 49.2695L33.1541 49.1919L32.7455 48.3193C32.551 47.9122 32.512 47.4663 32.6871 47.0397C32.8622 46.5936 33.2319 46.2252 33.6794 46.0314C33.9129 45.9344 34.1658 45.8763 34.4382 45.8763C35.1582 45.8763 35.839 46.2834 36.131 46.9233L36.559 47.7765L36.8703 47.6794C37.1038 47.5825 37.3567 47.5243 37.6291 47.5243C38.3685 47.5243 39.0299 47.9316 39.3219 48.5521C39.4775 48.9398 39.4969 49.4246 39.3219 49.8512Z" fill="#A90433"/>
<path d="M25.4876 50.8788V52.1004C25.4876 53.0893 24.6316 53.9036 23.5809 53.9036C22.5302 53.9036 21.6741 53.1086 21.6741 52.1004V50.8788C21.6741 49.8899 22.5302 49.0756 23.5809 49.0756C24.6316 49.095 25.4876 49.8899 25.4876 50.8788Z" fill="#A90433"/>
<path d="M15.3117 50.296C15.4674 50.7226 15.4478 51.1685 15.2534 51.5757C14.942 52.1961 14.3 52.6033 13.5606 52.6033C13.2882 52.6033 13.0353 52.5452 12.8018 52.4482L12.6267 52.3707L12.3932 52.8748C12.0819 53.4952 11.4204 53.8831 10.7005 53.8831C10.4281 53.8831 10.1752 53.8444 9.94169 53.7473C9.47472 53.5729 9.1245 53.2045 8.94939 52.7584C8.77428 52.332 8.79374 51.8666 8.9883 51.44L9.22178 50.9552L8.94939 50.8389C8.48243 50.645 8.13222 50.296 7.95711 49.8307C7.80144 49.4041 7.82091 48.9387 8.01548 48.5121C8.32678 47.8917 8.9883 47.4845 9.7082 47.4845C9.98059 47.4845 10.2335 47.5427 10.467 47.6396L10.7783 47.7366L11.1869 46.864C11.4982 46.2436 12.1403 45.8364 12.8796 45.8364C13.1326 45.8364 13.3855 45.8946 13.619 45.9915C14.086 46.1854 14.4556 46.5344 14.6113 46.9997C14.767 47.4263 14.7474 47.8724 14.553 48.2795L14.1443 49.152L14.3194 49.2295C14.767 49.4623 15.1367 49.85 15.3117 50.296Z" fill="#A90433"/>
<path d="M26.3425 39.5558V42.9103H20.8557V39.5558C20.8557 38.1403 22.1009 36.9771 23.5991 36.9771C25.1167 36.9771 26.3425 38.1403 26.3425 39.5558Z" fill="#A90433"/>
<path d="M29.1652 1.64872C29.1458 1.64872 29.1458 1.64872 29.1652 1.64872L28.8345 1.57117H21.2269C19.3007 1.57117 18.9894 3.60707 18.9311 4.03365H16.7713C16.0515 4.03365 15.4872 4.20815 15.1565 4.57655C14.7674 5.00312 14.7868 5.50725 14.8063 5.52664V6.9033H19.0478V11.8282H28.0757V8.91982C28.0757 8.82287 27.9394 6.67063 26.9472 5.58481C26.8693 5.4103 26.7332 4.96434 26.8693 4.75105C26.9277 4.69289 27.0056 4.65411 27.1417 4.65411C27.1613 4.65411 27.2001 4.65411 27.2584 4.67349L29.1264 4.61534C29.9629 4.61534 30.6439 3.58768 30.6439 3.1805C30.6439 2.38553 29.9241 1.64872 29.1652 1.64872ZM20.9351 4.38265C20.9351 3.80096 21.402 3.355 21.9663 3.355C22.55 3.355 22.9974 3.82036 22.9974 4.38265C22.9974 4.94495 22.5306 5.4103 21.9663 5.4103C21.4215 5.4297 20.9351 4.94495 20.9351 4.38265Z" fill="#A90433"/>
</g>
</g>
<defs>
<clipPath id="clip0_4394_166298">
<rect width="164" height="54" fill="white"/>
</clipPath>
</defs>
</svg>
