<svg xmlns="http://www.w3.org/2000/svg" viewBox="0 0 40 40">
  <g transform="translate(20 20) scale(0.5)" fill="none" stroke="#2563eb" stroke-width="5" stroke-linecap="round" stroke-linejoin="round">
    <circle r="13"/>
    <g fill="#2563eb" stroke="none">
      <rect x="-2.5" y="-19.5" width="5" height="7" rx="1.5"/>
      <rect x="-2.5" y="-19.5" width="5" height="7" rx="1.5" transform="rotate(45)"/>
      <rect x="-2.5" y="-19.5" width="5" height="7" rx="1.5" transform="rotate(90)"/>
      <rect x="-2.5" y="-19.5" width="5" height="7" rx="1.5" transform="rotate(135)"/>
      <rect x="-2.5" y="-19.5" width="5" height="7" rx="1.5" transform="rotate(180)"/>
      <rect x="-2.5" y="-19.5" width="5" height="7" rx="1.5" transform="rotate(225)"/>
      <rect x="-2.5" y="-19.5" width="5" height="7" rx="1.5" transform="rotate(270)"/>
      <rect x="-2.5" y="-19.5" width="5" height="7" rx="1.5" transform="rotate(315)"/>
    </g>
    <path d="M-7 0 L-2 5 L7 -10" stroke="#0f2747"/>
    <line x1="9" y1="-10" x2="14" y2="-14" stroke-width="3"/>
    <circle cx="14" cy="-14" r="2.4" fill="#2563eb" stroke="none"/>
  </g>
</svg>
